<?xml version="1.0" encoding="UTF-8" standalone="no"?><svg xmlns="http://www.w3.org/2000/svg" xmlns:xlink="http://www.w3.org/1999/xlink" contentScriptType="application/ecmascript" contentStyleType="text/css" height="1094px" preserveAspectRatio="none" style="width:1252px;height:1094px;" version="1.1" viewBox="0 0 1252 1094" width="1252px" zoomAndPan="magnify"><defs><filter height="300%" id="f1q404t08jeb2d" width="300%" x="-1" y="-1"><feGaussianBlur result="blurOut" stdDeviation="4.0"/><feColorMatrix in="blurOut" result="blurOut2" type="matrix" values="0 0 0 0 0 0 0 0 0 0 0 0 0 0 0 0 0 0 .4 0"/><feOffset dx="8.0" dy="8.0" in="blurOut2" result="blurOut3"/><feBlend in="SourceGraphic" in2="blurOut3" mode="normal"/></filter></defs><g><ellipse cx="624" cy="40" fill="#000000" filter="url(#f1q404t08jeb2d)" rx="20" ry="20" style="stroke:none;stroke-width:2.0;"/><rect fill="#FEFECE" filter="url(#f1q404t08jeb2d)" height="70.1875" rx="25" ry="25" style="stroke:#A80036;stroke-width:3.0;" width="136" x="556" y="100"/><text fill="#000000" font-family="sans-serif" font-size="24" lengthAdjust="spacingAndGlyphs" textLength="96" x="576" y="144.9141">开始游戏</text><rect fill="#000000" filter="url(#f1q404t08jeb2d)" height="12" rx="5" ry="5" style="stroke:#000000;stroke-width:2.0;" width="1104" x="72" y="324.0254"/><rect fill="#FEFECE" filter="url(#f1q404t08jeb2d)" height="70.1875" rx="25" ry="25" style="stroke:#A80036;stroke-width:3.0;" width="136" x="276" y="376.0254"/><text fill="#000000" font-family="sans-serif" font-size="24" lengthAdjust="spacingAndGlyphs" textLength="96" x="296" y="420.9395">练习模块</text><rect fill="#000000" filter="url(#f1q404t08jeb2d)" height="12" rx="5" ry="5" style="stroke:#000000;stroke-width:2.0;" width="500" x="96" y="486.2129"/><rect fill="#FEFECE" filter="url(#f1q404t08jeb2d)" height="70.1875" rx="25" ry="25" style="stroke:#A80036;stroke-width:3.0;" width="136" x="120" y="538.2129"/><text fill="#000000" font-family="sans-serif" font-size="24" lengthAdjust="spacingAndGlyphs" textLength="96" x="140" y="583.127">新手教程</text><rect fill="#FEFECE" filter="url(#f1q404t08jeb2d)" height="70.1875" rx="25" ry="25" style="stroke:#A80036;stroke-width:3.0;" width="136" x="276" y="538.2129"/><text fill="#000000" font-family="sans-serif" font-size="24" lengthAdjust="spacingAndGlyphs" textLength="96" x="296" y="583.127">随机数独</text><rect fill="#FEFECE" filter="url(#f1q404t08jeb2d)" height="70.1875" rx="25" ry="25" style="stroke:#A80036;stroke-width:3.0;" width="136" x="432" y="538.2129"/><text fill="#000000" font-family="sans-serif" font-size="24" lengthAdjust="spacingAndGlyphs" textLength="96" x="452" y="583.127">数独闯关</text><rect fill="#000000" filter="url(#f1q404t08jeb2d)" height="12" rx="5" ry="5" style="stroke:#000000;stroke-width:2.0;" width="500" x="96" y="648.4004"/><rect fill="#FEFECE" filter="url(#f1q404t08jeb2d)" height="70.1875" rx="25" ry="25" style="stroke:#A80036;stroke-width:3.0;" width="136" x="276" y="700.4004"/><text fill="#000000" font-family="sans-serif" font-size="24" lengthAdjust="spacingAndGlyphs" textLength="96" x="296" y="745.3145">完成练习</text><rect fill="#FEFECE" filter="url(#f1q404t08jeb2d)" height="70.1875" rx="25" ry="25" style="stroke:#A80036;stroke-width:3.0;" width="136" x="836" y="376.0254"/><text fill="#000000" font-family="sans-serif" font-size="24" lengthAdjust="spacingAndGlyphs" textLength="96" x="856" y="420.9395">匹配模块</text><rect fill="#000000" filter="url(#f1q404t08jeb2d)" height="12" rx="5" ry="5" style="stroke:#000000;stroke-width:2.0;" width="500" x="652" y="486.2129"/><rect fill="#FEFECE" filter="url(#f1q404t08jeb2d)" height="70.1875" rx="25" ry="25" style="stroke:#A80036;stroke-width:3.0;" width="136" x="680" y="538.2129"/><text fill="#000000" font-family="sans-serif" font-size="24" lengthAdjust="spacingAndGlyphs" textLength="96" x="700" y="583.127">任意对抗</text><rect fill="#FEFECE" filter="url(#f1q404t08jeb2d)" height="70.1875" rx="25" ry="25" style="stroke:#A80036;stroke-width:3.0;" width="136" x="836" y="538.2129"/><text fill="#000000" font-family="sans-serif" font-size="24" lengthAdjust="spacingAndGlyphs" textLength="96" x="856" y="583.127">好友比拼</text><rect fill="#FEFECE" filter="url(#f1q404t08jeb2d)" height="70.1875" rx="25" ry="25" style="stroke:#A80036;stroke-width:3.0;" width="136" x="992" y="538.2129"/><text fill="#000000" font-family="sans-serif" font-size="24" lengthAdjust="spacingAndGlyphs" textLength="96" x="1012" y="583.127">数独闯关</text><rect fill="#000000" filter="url(#f1q404t08jeb2d)" height="12" rx="5" ry="5" style="stroke:#000000;stroke-width:2.0;" width="500" x="652" y="648.4004"/><rect fill="#FEFECE" filter="url(#f1q404t08jeb2d)" height="70.1875" rx="25" ry="25" style="stroke:#A80036;stroke-width:3.0;" width="136" x="836" y="700.4004"/><text fill="#000000" font-family="sans-serif" font-size="24" lengthAdjust="spacingAndGlyphs" textLength="96" x="856" y="745.3145">完成闯关</text><rect fill="#000000" filter="url(#f1q404t08jeb2d)" height="12" rx="5" ry="5" style="stroke:#000000;stroke-width:2.0;" width="1104" x="72" y="810.5879"/><polygon fill="#FEFECE" filter="url(#f1q404t08jeb2d)" points="558,210.1875,690,210.1875,714,234.1875,690,258.1875,558,258.1875,534,234.1875,558,210.1875" style="stroke:#A80036;stroke-width:3.0;"/><text fill="#000000" font-family="sans-serif" font-size="22" lengthAdjust="spacingAndGlyphs" textLength="88" x="632" y="281.0254">进入菜单</text><text fill="#000000" font-family="sans-serif" font-size="22" lengthAdjust="spacingAndGlyphs" textLength="132" x="558" y="243.1895">不退出游戏？</text><rect fill="#FEFECE" filter="url(#f1q404t08jeb2d)" height="70.1875" rx="25" ry="25" style="stroke:#A80036;stroke-width:3.0;" width="136" x="556" y="906.5879"/><text fill="#000000" font-family="sans-serif" font-size="24" lengthAdjust="spacingAndGlyphs" textLength="96" x="576" y="951.502">退出游戏</text><ellipse cx="624" cy="1038.7754" fill="#FFFFFF" filter="url(#f1q404t08jeb2d)" rx="22" ry="22" style="stroke:#000000;stroke-width:2.0;"/><ellipse cx="624" cy="1038.7754" fill="#000000" rx="12" ry="12" style="stroke:#7F7F7F;stroke-width:2.0;"/><line style="stroke:#A80036;stroke-width:3.0;" x1="624" x2="624" y1="60" y2="100"/><polygon fill="#A80036" points="616,80,624,100,632,80,624,88" style="stroke:#A80036;stroke-width:2.0;"/><line style="stroke:#A80036;stroke-width:3.0;" x1="188" x2="188" y1="498.2129" y2="538.2129"/><polygon fill="#A80036" points="180,518.2129,188,538.2129,196,518.2129,188,526.2129" style="stroke:#A80036;stroke-width:2.0;"/><line style="stroke:#A80036;stroke-width:3.0;" x1="344" x2="344" y1="498.2129" y2="538.2129"/><polygon fill="#A80036" points="336,518.2129,344,538.2129,352,518.2129,344,526.2129" style="stroke:#A80036;stroke-width:2.0;"/><line style="stroke:#A80036;stroke-width:3.0;" x1="500" x2="500" y1="498.2129" y2="538.2129"/><polygon fill="#A80036" points="492,518.2129,500,538.2129,508,518.2129,500,526.2129" style="stroke:#A80036;stroke-width:2.0;"/><line style="stroke:#A80036;stroke-width:3.0;" x1="188" x2="188" y1="608.4004" y2="648.4004"/><polygon fill="#A80036" points="180,628.4004,188,648.4004,196,628.4004,188,636.4004" style="stroke:#A80036;stroke-width:2.0;"/><line style="stroke:#A80036;stroke-width:3.0;" x1="344" x2="344" y1="608.4004" y2="648.4004"/><polygon fill="#A80036" points="336,628.4004,344,648.4004,352,628.4004,344,636.4004" style="stroke:#A80036;stroke-width:2.0;"/><line style="stroke:#A80036;stroke-width:3.0;" x1="500" x2="500" y1="608.4004" y2="648.4004"/><polygon fill="#A80036" points="492,628.4004,500,648.4004,508,628.4004,500,636.4004" style="stroke:#A80036;stroke-width:2.0;"/><line style="stroke:#A80036;stroke-width:3.0;" x1="344" x2="344" y1="446.2129" y2="486.2129"/><polygon fill="#A80036" points="336,466.2129,344,486.2129,352,466.2129,344,474.2129" style="stroke:#A80036;stroke-width:2.0;"/><line style="stroke:#A80036;stroke-width:3.0;" x1="344" x2="344" y1="660.4004" y2="700.4004"/><polygon fill="#A80036" points="336,680.4004,344,700.4004,352,680.4004,344,688.4004" style="stroke:#A80036;stroke-width:2.0;"/><line style="stroke:#A80036;stroke-width:3.0;" x1="748" x2="748" y1="498.2129" y2="538.2129"/><polygon fill="#A80036" points="740,518.2129,748,538.2129,756,518.2129,748,526.2129" style="stroke:#A80036;stroke-width:2.0;"/><line style="stroke:#A80036;stroke-width:3.0;" x1="904" x2="904" y1="498.2129" y2="538.2129"/><polygon fill="#A80036" points="896,518.2129,904,538.2129,912,518.2129,904,526.2129" style="stroke:#A80036;stroke-width:2.0;"/><line style="stroke:#A80036;stroke-width:3.0;" x1="1060" x2="1060" y1="498.2129" y2="538.2129"/><polygon fill="#A80036" points="1052,518.2129,1060,538.2129,1068,518.2129,1060,526.2129" style="stroke:#A80036;stroke-width:2.0;"/><line style="stroke:#A80036;stroke-width:3.0;" x1="748" x2="748" y1="608.4004" y2="648.4004"/><polygon fill="#A80036" points="740,628.4004,748,648.4004,756,628.4004,748,636.4004" style="stroke:#A80036;stroke-width:2.0;"/><line style="stroke:#A80036;stroke-width:3.0;" x1="904" x2="904" y1="608.4004" y2="648.4004"/><polygon fill="#A80036" points="896,628.4004,904,648.4004,912,628.4004,904,636.4004" style="stroke:#A80036;stroke-width:2.0;"/><line style="stroke:#A80036;stroke-width:3.0;" x1="1060" x2="1060" y1="608.4004" y2="648.4004"/><polygon fill="#A80036" points="1052,628.4004,1060,648.4004,1068,628.4004,1060,636.4004" style="stroke:#A80036;stroke-width:2.0;"/><line style="stroke:#A80036;stroke-width:3.0;" x1="904" x2="904" y1="446.2129" y2="486.2129"/><polygon fill="#A80036" points="896,466.2129,904,486.2129,912,466.2129,904,474.2129" style="stroke:#A80036;stroke-width:2.0;"/><line style="stroke:#A80036;stroke-width:3.0;" x1="904" x2="904" y1="660.4004" y2="700.4004"/><polygon fill="#A80036" points="896,680.4004,904,700.4004,912,680.4004,904,688.4004" style="stroke:#A80036;stroke-width:2.0;"/><line style="stroke:#A80036;stroke-width:3.0;" x1="344" x2="344" y1="336.0254" y2="376.0254"/><polygon fill="#A80036" points="336,356.0254,344,376.0254,352,356.0254,344,364.0254" style="stroke:#A80036;stroke-width:2.0;"/><line style="stroke:#A80036;stroke-width:3.0;" x1="904" x2="904" y1="336.0254" y2="376.0254"/><polygon fill="#A80036" points="896,356.0254,904,376.0254,912,356.0254,904,364.0254" style="stroke:#A80036;stroke-width:2.0;"/><line style="stroke:#A80036;stroke-width:3.0;" x1="344" x2="344" y1="770.5879" y2="810.5879"/><polygon fill="#A80036" points="336,790.5879,344,810.5879,352,790.5879,344,798.5879" style="stroke:#A80036;stroke-width:2.0;"/><line style="stroke:#A80036;stroke-width:3.0;" x1="904" x2="904" y1="770.5879" y2="810.5879"/><polygon fill="#A80036" points="896,790.5879,904,810.5879,912,790.5879,904,798.5879" style="stroke:#A80036;stroke-width:2.0;"/><line style="stroke:#A80036;stroke-width:3.0;" x1="624" x2="624" y1="258.1875" y2="324.0254"/><polygon fill="#A80036" points="616,304.0254,624,324.0254,632,304.0254,624,312.0254" style="stroke:#A80036;stroke-width:2.0;"/><line style="stroke:#A80036;stroke-width:3.0;" x1="624" x2="624" y1="822.5879" y2="842.5879"/><line style="stroke:#A80036;stroke-width:3.0;" x1="624" x2="1200" y1="842.5879" y2="842.5879"/><polygon fill="#A80036" points="1192,555.4707,1200,535.4707,1208,555.4707,1200,547.4707" style="stroke:#A80036;stroke-width:3.0;"/><line style="stroke:#A80036;stroke-width:3.0;" x1="1200" x2="1200" y1="234.1875" y2="842.5879"/><line style="stroke:#A80036;stroke-width:3.0;" x1="1200" x2="714" y1="234.1875" y2="234.1875"/><polygon fill="#A80036" points="734,226.1875,714,234.1875,734,242.1875,726,234.1875" style="stroke:#A80036;stroke-width:2.0;"/><line style="stroke:#A80036;stroke-width:3.0;" x1="534" x2="48" y1="234.1875" y2="234.1875"/><polygon fill="#A80036" points="40,527.4707,48,547.4707,56,527.4707,48,535.4707" style="stroke:#A80036;stroke-width:3.0;"/><line style="stroke:#A80036;stroke-width:3.0;" x1="48" x2="48" y1="234.1875" y2="866.5879"/><line style="stroke:#A80036;stroke-width:3.0;" x1="48" x2="624" y1="866.5879" y2="866.5879"/><line style="stroke:#A80036;stroke-width:3.0;" x1="624" x2="624" y1="866.5879" y2="906.5879"/><polygon fill="#A80036" points="616,886.5879,624,906.5879,632,886.5879,624,894.5879" style="stroke:#A80036;stroke-width:2.0;"/><line style="stroke:#A80036;stroke-width:3.0;" x1="624" x2="624" y1="170.1875" y2="210.1875"/><polygon fill="#A80036" points="616,190.1875,624,210.1875,632,190.1875,624,198.1875" style="stroke:#A80036;stroke-width:2.0;"/><line style="stroke:#A80036;stroke-width:3.0;" x1="624" x2="624" y1="976.7754" y2="1016.7754"/><polygon fill="#A80036" points="616,996.7754,624,1016.7754,632,996.7754,624,1004.7754" style="stroke:#A80036;stroke-width:2.0;"/><!--MD5=[433badd7e52ddff68ab7ff3459092207]
@startuml
scale 2
start
:开始游戏;
while (不退出游戏？) is (进入菜单)
fork
:练习模块;
fork
:新手教程;
fork again
:随机数独;
fork again
:数独闯关;
end fork
:完成练习;
fork again
:匹配模块;
fork
:任意对抗;
fork again
:好友比拼;
fork again
:数独闯关;
end fork
:完成闯关;
end fork
end while
:退出游戏;
stop
@enduml

PlantUML version 1.2020.22(Sun Dec 06 01:36:27 PST 2020)
(GPL source distribution)
Java Runtime: Java(TM) SE Runtime Environment
JVM: Java HotSpot(TM) 64-Bit Server VM
Default Encoding: Cp1252
Language: en
Country: US
--></g></svg>