<?xml version="1.0" encoding="UTF-8" standalone="no"?><svg xmlns="http://www.w3.org/2000/svg" xmlns:xlink="http://www.w3.org/1999/xlink" contentScriptType="application/ecmascript" contentStyleType="text/css" height="1592px" preserveAspectRatio="none" style="width:986px;height:1592px;" version="1.1" viewBox="0 0 986 1592" width="986px" zoomAndPan="magnify"><defs><filter height="300%" id="f1rygkww6nx5o2" width="300%" x="-1" y="-1"><feGaussianBlur result="blurOut" stdDeviation="4.0"/><feColorMatrix in="blurOut" result="blurOut2" type="matrix" values="0 0 0 0 0 0 0 0 0 0 0 0 0 0 0 0 0 0 .4 0"/><feOffset dx="8.0" dy="8.0" in="blurOut2" result="blurOut3"/><feBlend in="SourceGraphic" in2="blurOut3" mode="normal"/></filter></defs><g><!--MD5=[3fd616f346a44cd59a91eb10b19e157c]
class User--><rect codeLine="2" fill="#FEFECE" filter="url(#f1rygkww6nx5o2)" height="289.7031" id="User" style="stroke:#A80036;stroke-width:3.0;" width="210" x="375" y="1276"/><ellipse cx="446.4" cy="1308" fill="#ADD1B2" rx="22" ry="22" style="stroke:#A80036;stroke-width:2.0;"/><path d="M451.9313,1299.75 Q452.2438,1299.3125 452.6188,1299.0938 Q452.9938,1298.875 453.4313,1298.875 Q454.1813,1298.875 454.65,1299.4063 Q455.1188,1299.9063 455.1188,1301.125 L455.1188,1304.0313 Q455.1188,1305.25 454.65,1305.7813 Q454.1813,1306.3125 453.4313,1306.3125 Q452.7438,1306.3125 452.3375,1305.9063 Q451.9313,1305.5313 451.7125,1304.5 Q451.6188,1303.7813 451.2438,1303.4063 Q450.5875,1302.6563 449.3688,1302.2188 Q448.15,1301.7813 446.9,1301.7813 Q445.3688,1301.7813 444.0875,1302.4375 Q442.8375,1303.0938 441.8375,1304.5938 Q440.8688,1306.0938 440.8688,1308.1563 L440.8688,1310.3438 Q440.8688,1312.8125 442.65,1314.4688 Q444.4313,1316.0938 447.6188,1316.0938 Q449.4938,1316.0938 450.8063,1315.5938 Q451.5875,1315.2813 452.4313,1314.4063 Q452.9625,1313.875 453.2438,1313.7188 Q453.5563,1313.5625 453.9625,1313.5625 Q454.6188,1313.5625 455.1188,1314.0938 Q455.65,1314.5938 455.65,1315.2813 Q455.65,1315.9688 454.9625,1316.7813 Q453.9625,1317.9375 452.3688,1318.5938 Q450.2125,1319.5 447.6188,1319.5 Q444.5875,1319.5 442.1813,1318.25 Q440.2125,1317.25 438.8375,1315.125 Q437.4625,1312.9688 437.4625,1310.4063 L437.4625,1308.0938 Q437.4625,1305.4375 438.6813,1303.1563 Q439.9313,1300.8438 442.1188,1299.625 Q444.3063,1298.375 446.775,1298.375 Q448.2438,1298.375 449.525,1298.7188 Q450.8375,1299.0313 451.9313,1299.75 Z " fill="#000000"/><text fill="#000000" font-family="sans-serif" font-size="24" lengthAdjust="spacingAndGlyphs" textLength="54" x="483.6" y="1317.8203">User</text><line style="stroke:#A80036;stroke-width:3.0;" x1="377" x2="583" y1="1340" y2="1340"/><ellipse cx="397" cy="1362" fill="none" rx="6" ry="6" style="stroke:#038048;stroke-width:2.0;"/><text fill="#000000" font-family="sans-serif" font-size="22" lengthAdjust="spacingAndGlyphs" textLength="104" x="415" y="1370.8379">ID: interger</text><ellipse cx="397" cy="1389.6719" fill="none" rx="6" ry="6" style="stroke:#038048;stroke-width:2.0;"/><text fill="#000000" font-family="sans-serif" font-size="22" lengthAdjust="spacingAndGlyphs" textLength="144" x="415" y="1398.5098">points: interger</text><ellipse cx="397" cy="1417.3438" fill="none" rx="6" ry="6" style="stroke:#038048;stroke-width:2.0;"/><text fill="#000000" font-family="sans-serif" font-size="22" lengthAdjust="spacingAndGlyphs" textLength="134" x="415" y="1426.1816">lever: interger</text><ellipse cx="397" cy="1445.0156" fill="none" rx="6" ry="6" style="stroke:#038048;stroke-width:2.0;"/><text fill="#000000" font-family="sans-serif" font-size="22" lengthAdjust="spacingAndGlyphs" textLength="128" x="415" y="1453.8535">rank: interger</text><ellipse cx="397" cy="1472.6875" fill="none" rx="6" ry="6" style="stroke:#038048;stroke-width:2.0;"/><text fill="#000000" font-family="sans-serif" font-size="22" lengthAdjust="spacingAndGlyphs" textLength="140" x="415" y="1481.5254">records: array</text><ellipse cx="397" cy="1500.3594" fill="none" rx="6" ry="6" style="stroke:#038048;stroke-width:2.0;"/><text fill="#000000" font-family="sans-serif" font-size="22" lengthAdjust="spacingAndGlyphs" textLength="158" x="415" y="1509.1973">passed: interger</text><line style="stroke:#A80036;stroke-width:3.0;" x1="377" x2="583" y1="1522.0313" y2="1522.0313"/><rect fill="#F24D5C" height="12" style="stroke:#C82930;stroke-width:2.0;" width="12" x="391" y="1538.0313"/><text fill="#000000" font-family="sans-serif" font-size="22" lengthAdjust="spacingAndGlyphs" textLength="74" x="415" y="1552.8691">match()</text><!--MD5=[cbfc57bef1c415c3126d20e2f7e364c7]
class Stage--><rect codeLine="12" fill="#FEFECE" filter="url(#f1rygkww6nx5o2)" height="289.7031" id="Stage" style="stroke:#A80036;stroke-width:3.0;" width="220" x="14" y="370"/><ellipse cx="85.4" cy="402" fill="#ADD1B2" rx="22" ry="22" style="stroke:#A80036;stroke-width:2.0;"/><path d="M90.9313,393.75 Q91.2438,393.3125 91.6188,393.0938 Q91.9938,392.875 92.4313,392.875 Q93.1813,392.875 93.65,393.4063 Q94.1188,393.9063 94.1188,395.125 L94.1188,398.0313 Q94.1188,399.25 93.65,399.7813 Q93.1813,400.3125 92.4313,400.3125 Q91.7438,400.3125 91.3375,399.9063 Q90.9313,399.5313 90.7125,398.5 Q90.6188,397.7813 90.2438,397.4063 Q89.5875,396.6563 88.3688,396.2188 Q87.15,395.7813 85.9,395.7813 Q84.3688,395.7813 83.0875,396.4375 Q81.8375,397.0938 80.8375,398.5938 Q79.8688,400.0938 79.8688,402.1563 L79.8688,404.3438 Q79.8688,406.8125 81.65,408.4688 Q83.4313,410.0938 86.6188,410.0938 Q88.4938,410.0938 89.8063,409.5938 Q90.5875,409.2813 91.4313,408.4063 Q91.9625,407.875 92.2438,407.7188 Q92.5563,407.5625 92.9625,407.5625 Q93.6188,407.5625 94.1188,408.0938 Q94.65,408.5938 94.65,409.2813 Q94.65,409.9688 93.9625,410.7813 Q92.9625,411.9375 91.3688,412.5938 Q89.2125,413.5 86.6188,413.5 Q83.5875,413.5 81.1813,412.25 Q79.2125,411.25 77.8375,409.125 Q76.4625,406.9688 76.4625,404.4063 L76.4625,402.0938 Q76.4625,399.4375 77.6813,397.1563 Q78.9313,394.8438 81.1188,393.625 Q83.3063,392.375 85.775,392.375 Q87.2438,392.375 88.525,392.7188 Q89.8375,393.0313 90.9313,393.75 Z " fill="#000000"/><text fill="#000000" font-family="sans-serif" font-size="24" lengthAdjust="spacingAndGlyphs" textLength="64" x="122.6" y="411.8203">Stage</text><line style="stroke:#A80036;stroke-width:3.0;" x1="16" x2="232" y1="434" y2="434"/><ellipse cx="36" cy="456" fill="none" rx="6" ry="6" style="stroke:#038048;stroke-width:2.0;"/><text fill="#000000" font-family="sans-serif" font-size="22" lengthAdjust="spacingAndGlyphs" textLength="104" x="54" y="464.8379">ID: interger</text><rect fill="none" height="12" style="stroke:#C82930;stroke-width:2.0;" width="12" x="30" y="477.6719"/><text fill="#000000" font-family="sans-serif" font-size="22" lengthAdjust="spacingAndGlyphs" textLength="116" x="54" y="492.5098">clues: array</text><ellipse cx="36" cy="511.3438" fill="none" rx="6" ry="6" style="stroke:#038048;stroke-width:2.0;"/><text fill="#000000" font-family="sans-serif" font-size="22" lengthAdjust="spacingAndGlyphs" textLength="168" x="54" y="520.1816">difficulty: interger</text><rect fill="none" height="12" style="stroke:#C82930;stroke-width:2.0;" width="12" x="30" y="533.0156"/><text fill="#000000" font-family="sans-serif" font-size="22" lengthAdjust="spacingAndGlyphs" textLength="98" x="54" y="547.8535">hint: array</text><rect fill="none" height="12" style="stroke:#C82930;stroke-width:2.0;" width="12" x="30" y="560.6875"/><text fill="#000000" font-family="sans-serif" font-size="22" lengthAdjust="spacingAndGlyphs" textLength="140" x="54" y="575.5254">answer: array</text><rect fill="none" height="12" style="stroke:#C82930;stroke-width:2.0;" width="12" x="30" y="588.3594"/><text fill="#000000" font-family="sans-serif" font-size="22" lengthAdjust="spacingAndGlyphs" textLength="160" x="54" y="603.1973">rankinglist: array</text><line style="stroke:#A80036;stroke-width:3.0;" x1="16" x2="232" y1="616.0313" y2="616.0313"/><rect fill="#F24D5C" height="12" style="stroke:#C82930;stroke-width:2.0;" width="12" x="30" y="632.0313"/><text fill="#000000" font-family="sans-serif" font-size="22" lengthAdjust="spacingAndGlyphs" textLength="148" x="54" y="646.8691">judgeAnswer()</text><!--MD5=[7106e3dd2a1ebea13110e48d38bd8276]
class Random--><rect codeLine="22" fill="#FEFECE" filter="url(#f1rygkww6nx5o2)" height="234.3594" id="Random" style="stroke:#A80036;stroke-width:3.0;" width="230" x="405" y="14"/><ellipse cx="466.5" cy="46" fill="#ADD1B2" rx="22" ry="22" style="stroke:#A80036;stroke-width:2.0;"/><path d="M472.0313,37.75 Q472.3438,37.3125 472.7188,37.0938 Q473.0938,36.875 473.5313,36.875 Q474.2813,36.875 474.75,37.4063 Q475.2188,37.9063 475.2188,39.125 L475.2188,42.0313 Q475.2188,43.25 474.75,43.7813 Q474.2813,44.3125 473.5313,44.3125 Q472.8438,44.3125 472.4375,43.9063 Q472.0313,43.5313 471.8125,42.5 Q471.7188,41.7813 471.3438,41.4063 Q470.6875,40.6563 469.4688,40.2188 Q468.25,39.7813 467,39.7813 Q465.4688,39.7813 464.1875,40.4375 Q462.9375,41.0938 461.9375,42.5938 Q460.9688,44.0938 460.9688,46.1563 L460.9688,48.3438 Q460.9688,50.8125 462.75,52.4688 Q464.5313,54.0938 467.7188,54.0938 Q469.5938,54.0938 470.9063,53.5938 Q471.6875,53.2813 472.5313,52.4063 Q473.0625,51.875 473.3438,51.7188 Q473.6563,51.5625 474.0625,51.5625 Q474.7188,51.5625 475.2188,52.0938 Q475.75,52.5938 475.75,53.2813 Q475.75,53.9688 475.0625,54.7813 Q474.0625,55.9375 472.4688,56.5938 Q470.3125,57.5 467.7188,57.5 Q464.6875,57.5 462.2813,56.25 Q460.3125,55.25 458.9375,53.125 Q457.5625,50.9688 457.5625,48.4063 L457.5625,46.0938 Q457.5625,43.4375 458.7813,41.1563 Q460.0313,38.8438 462.2188,37.625 Q464.4063,36.375 466.875,36.375 Q468.3438,36.375 469.625,36.7188 Q470.9375,37.0313 472.0313,37.75 Z " fill="#000000"/><text fill="#000000" font-family="sans-serif" font-size="24" lengthAdjust="spacingAndGlyphs" textLength="96" x="501.5" y="55.8203">Random</text><line style="stroke:#A80036;stroke-width:3.0;" x1="407" x2="633" y1="78" y2="78"/><ellipse cx="427" cy="100" fill="none" rx="6" ry="6" style="stroke:#038048;stroke-width:2.0;"/><text fill="#000000" font-family="sans-serif" font-size="22" lengthAdjust="spacingAndGlyphs" textLength="178" x="445" y="108.8379">hardness: interger</text><rect fill="none" height="12" style="stroke:#C82930;stroke-width:2.0;" width="12" x="421" y="121.6719"/><text fill="#000000" font-family="sans-serif" font-size="22" lengthAdjust="spacingAndGlyphs" textLength="116" x="445" y="136.5098">clues: array</text><rect fill="none" height="12" style="stroke:#C82930;stroke-width:2.0;" width="12" x="421" y="149.3438"/><text fill="#000000" font-family="sans-serif" font-size="22" lengthAdjust="spacingAndGlyphs" textLength="140" x="445" y="164.1816">answer: array</text><line style="stroke:#A80036;stroke-width:3.0;" x1="407" x2="633" y1="177.0156" y2="177.0156"/><rect fill="#F24D5C" height="12" style="stroke:#C82930;stroke-width:2.0;" width="12" x="421" y="193.0156"/><text fill="#000000" font-family="sans-serif" font-size="22" lengthAdjust="spacingAndGlyphs" textLength="102" x="445" y="207.8535">generate()</text><rect fill="#F24D5C" height="12" style="stroke:#C82930;stroke-width:2.0;" width="12" x="421" y="220.6875"/><text fill="#000000" font-family="sans-serif" font-size="22" lengthAdjust="spacingAndGlyphs" textLength="68" x="445" y="235.5254">jugde()</text><!--MD5=[e540e378c6abdea51089528d6bedccb9]
class Guide--><rect codeLine="30" fill="#FEFECE" filter="url(#f1rygkww6nx5o2)" height="179.0156" id="Guide" style="stroke:#A80036;stroke-width:3.0;" width="178" x="161" y="782"/><ellipse cx="212.6" cy="814" fill="#ADD1B2" rx="22" ry="22" style="stroke:#A80036;stroke-width:2.0;"/><path d="M218.1313,805.75 Q218.4438,805.3125 218.8188,805.0938 Q219.1938,804.875 219.6313,804.875 Q220.3813,804.875 220.85,805.4063 Q221.3188,805.9063 221.3188,807.125 L221.3188,810.0313 Q221.3188,811.25 220.85,811.7813 Q220.3813,812.3125 219.6313,812.3125 Q218.9438,812.3125 218.5375,811.9063 Q218.1313,811.5313 217.9125,810.5 Q217.8188,809.7813 217.4438,809.4063 Q216.7875,808.6563 215.5688,808.2188 Q214.35,807.7813 213.1,807.7813 Q211.5688,807.7813 210.2875,808.4375 Q209.0375,809.0938 208.0375,810.5938 Q207.0688,812.0938 207.0688,814.1563 L207.0688,816.3438 Q207.0688,818.8125 208.85,820.4688 Q210.6313,822.0938 213.8188,822.0938 Q215.6938,822.0938 217.0063,821.5938 Q217.7875,821.2813 218.6313,820.4063 Q219.1625,819.875 219.4438,819.7188 Q219.7563,819.5625 220.1625,819.5625 Q220.8188,819.5625 221.3188,820.0938 Q221.85,820.5938 221.85,821.2813 Q221.85,821.9688 221.1625,822.7813 Q220.1625,823.9375 218.5688,824.5938 Q216.4125,825.5 213.8188,825.5 Q210.7875,825.5 208.3813,824.25 Q206.4125,823.25 205.0375,821.125 Q203.6625,818.9688 203.6625,816.4063 L203.6625,814.0938 Q203.6625,811.4375 204.8813,809.1563 Q206.1313,806.8438 208.3188,805.625 Q210.5063,804.375 212.975,804.375 Q214.4438,804.375 215.725,804.7188 Q217.0375,805.0313 218.1313,805.75 Z " fill="#000000"/><text fill="#000000" font-family="sans-serif" font-size="24" lengthAdjust="spacingAndGlyphs" textLength="66" x="245.4" y="823.8203">Guide</text><line style="stroke:#A80036;stroke-width:3.0;" x1="163" x2="337" y1="846" y2="846"/><rect fill="none" height="12" style="stroke:#C82930;stroke-width:2.0;" width="12" x="177" y="862"/><text fill="#000000" font-family="sans-serif" font-size="22" lengthAdjust="spacingAndGlyphs" textLength="118" x="201" y="876.8379">steps: array</text><rect fill="none" height="12" style="stroke:#C82930;stroke-width:2.0;" width="12" x="177" y="889.6719"/><text fill="#000000" font-family="sans-serif" font-size="22" lengthAdjust="spacingAndGlyphs" textLength="126" x="201" y="904.5098">helper: string</text><line style="stroke:#A80036;stroke-width:3.0;" x1="163" x2="337" y1="917.3438" y2="917.3438"/><rect fill="#F24D5C" height="12" style="stroke:#C82930;stroke-width:2.0;" width="12" x="177" y="933.3438"/><text fill="#000000" font-family="sans-serif" font-size="22" lengthAdjust="spacingAndGlyphs" textLength="68" x="201" y="948.1816">guide()</text><!--MD5=[5812260e11fc0e765802a3790bb93705]
class Competition--><rect codeLine="36" fill="#FEFECE" filter="url(#f1rygkww6nx5o2)" height="262.0313" id="Competition" style="stroke:#A80036;stroke-width:3.0;" width="210" x="587" y="384"/><ellipse cx="622.4" cy="416" fill="#ADD1B2" rx="22" ry="22" style="stroke:#A80036;stroke-width:2.0;"/><path d="M627.9313,407.75 Q628.2438,407.3125 628.6188,407.0938 Q628.9938,406.875 629.4313,406.875 Q630.1813,406.875 630.65,407.4063 Q631.1188,407.9063 631.1188,409.125 L631.1188,412.0313 Q631.1188,413.25 630.65,413.7813 Q630.1813,414.3125 629.4313,414.3125 Q628.7438,414.3125 628.3375,413.9063 Q627.9313,413.5313 627.7125,412.5 Q627.6188,411.7813 627.2438,411.4063 Q626.5875,410.6563 625.3688,410.2188 Q624.15,409.7813 622.9,409.7813 Q621.3688,409.7813 620.0875,410.4375 Q618.8375,411.0938 617.8375,412.5938 Q616.8688,414.0938 616.8688,416.1563 L616.8688,418.3438 Q616.8688,420.8125 618.65,422.4688 Q620.4313,424.0938 623.6188,424.0938 Q625.4938,424.0938 626.8063,423.5938 Q627.5875,423.2813 628.4313,422.4063 Q628.9625,421.875 629.2438,421.7188 Q629.5563,421.5625 629.9625,421.5625 Q630.6188,421.5625 631.1188,422.0938 Q631.65,422.5938 631.65,423.2813 Q631.65,423.9688 630.9625,424.7813 Q629.9625,425.9375 628.3688,426.5938 Q626.2125,427.5 623.6188,427.5 Q620.5875,427.5 618.1813,426.25 Q616.2125,425.25 614.8375,423.125 Q613.4625,420.9688 613.4625,418.4063 L613.4625,416.0938 Q613.4625,413.4375 614.6813,411.1563 Q615.9313,408.8438 618.1188,407.625 Q620.3063,406.375 622.775,406.375 Q624.2438,406.375 625.525,406.7188 Q626.8375,407.0313 627.9313,407.75 Z " fill="#000000"/><text fill="#000000" font-family="sans-serif" font-size="24" lengthAdjust="spacingAndGlyphs" textLength="134" x="651.6" y="425.8203">Competition</text><line style="stroke:#A80036;stroke-width:3.0;" x1="589" x2="795" y1="448" y2="448"/><rect fill="none" height="12" style="stroke:#C82930;stroke-width:2.0;" width="12" x="603" y="464"/><text fill="#000000" font-family="sans-serif" font-size="22" lengthAdjust="spacingAndGlyphs" textLength="116" x="627" y="478.8379">clues: array</text><line style="stroke:#A80036;stroke-width:3.0;" x1="589" x2="795" y1="491.6719" y2="491.6719"/><rect fill="#F24D5C" height="12" style="stroke:#C82930;stroke-width:2.0;" width="12" x="603" y="507.6719"/><text fill="#000000" font-family="sans-serif" font-size="22" lengthAdjust="spacingAndGlyphs" textLength="62" x="627" y="522.5098">timer()</text><rect fill="#F24D5C" height="12" style="stroke:#C82930;stroke-width:2.0;" width="12" x="603" y="535.3438"/><text fill="#000000" font-family="sans-serif" font-size="22" lengthAdjust="spacingAndGlyphs" textLength="76" x="627" y="550.1816">pause()</text><rect fill="#F24D5C" height="12" style="stroke:#C82930;stroke-width:2.0;" width="12" x="603" y="563.0156"/><text fill="#000000" font-family="sans-serif" font-size="22" lengthAdjust="spacingAndGlyphs" textLength="98" x="627" y="577.8535">continue()</text><rect fill="#F24D5C" height="12" style="stroke:#C82930;stroke-width:2.0;" width="12" x="603" y="590.6875"/><text fill="#000000" font-family="sans-serif" font-size="22" lengthAdjust="spacingAndGlyphs" textLength="100" x="627" y="605.5254">compare()</text><rect fill="#F24D5C" height="12" style="stroke:#C82930;stroke-width:2.0;" width="12" x="603" y="618.3594"/><text fill="#000000" font-family="sans-serif" font-size="22" lengthAdjust="spacingAndGlyphs" textLength="158" x="627" y="633.1973">dealWithResult()</text><!--MD5=[4986b83e9bd62404d41350bb52758c36]
class Ladder--><rect codeLine="45" fill="#FEFECE" filter="url(#f1rygkww6nx5o2)" height="151.3438" id="Ladder" style="stroke:#A80036;stroke-width:3.0;" width="214" x="745" y="796"/><ellipse cx="807.4" cy="828" fill="#ADD1B2" rx="22" ry="22" style="stroke:#A80036;stroke-width:2.0;"/><path d="M812.9313,819.75 Q813.2438,819.3125 813.6188,819.0938 Q813.9938,818.875 814.4313,818.875 Q815.1813,818.875 815.65,819.4063 Q816.1188,819.9063 816.1188,821.125 L816.1188,824.0313 Q816.1188,825.25 815.65,825.7813 Q815.1813,826.3125 814.4313,826.3125 Q813.7438,826.3125 813.3375,825.9063 Q812.9313,825.5313 812.7125,824.5 Q812.6188,823.7813 812.2438,823.4063 Q811.5875,822.6563 810.3688,822.2188 Q809.15,821.7813 807.9,821.7813 Q806.3688,821.7813 805.0875,822.4375 Q803.8375,823.0938 802.8375,824.5938 Q801.8688,826.0938 801.8688,828.1563 L801.8688,830.3438 Q801.8688,832.8125 803.65,834.4688 Q805.4313,836.0938 808.6188,836.0938 Q810.4938,836.0938 811.8063,835.5938 Q812.5875,835.2813 813.4313,834.4063 Q813.9625,833.875 814.2438,833.7188 Q814.5563,833.5625 814.9625,833.5625 Q815.6188,833.5625 816.1188,834.0938 Q816.65,834.5938 816.65,835.2813 Q816.65,835.9688 815.9625,836.7813 Q814.9625,837.9375 813.3688,838.5938 Q811.2125,839.5 808.6188,839.5 Q805.5875,839.5 803.1813,838.25 Q801.2125,837.25 799.8375,835.125 Q798.4625,832.9688 798.4625,830.4063 L798.4625,828.0938 Q798.4625,825.4375 799.6813,823.1563 Q800.9313,820.8438 803.1188,819.625 Q805.3063,818.375 807.775,818.375 Q809.2438,818.375 810.525,818.7188 Q811.8375,819.0313 812.9313,819.75 Z " fill="#000000"/><text fill="#000000" font-family="sans-serif" font-size="24" lengthAdjust="spacingAndGlyphs" textLength="78" x="842.6" y="837.8203">Ladder</text><line style="stroke:#A80036;stroke-width:3.0;" x1="747" x2="957" y1="860" y2="860"/><ellipse cx="767" cy="882" fill="none" rx="6" ry="6" style="stroke:#038048;stroke-width:2.0;"/><text fill="#000000" font-family="sans-serif" font-size="22" lengthAdjust="spacingAndGlyphs" textLength="140" x="785" y="890.8379">result: interger</text><line style="stroke:#A80036;stroke-width:3.0;" x1="747" x2="957" y1="903.6719" y2="903.6719"/><rect fill="#F24D5C" height="12" style="stroke:#C82930;stroke-width:2.0;" width="12" x="761" y="919.6719"/><text fill="#000000" font-family="sans-serif" font-size="22" lengthAdjust="spacingAndGlyphs" textLength="162" x="785" y="934.5098">submitAndStop()</text><!--MD5=[37d8b8d684f7201c2af34fccde06707a]
link Stage to User--><path codeLine="50" d="M101.66,660.2 C93.3,749.4 92.66,865.22 126,962 C175.2,1104.8 288.9,1237.64 374.26,1322.88 " fill="none" id="Stage-User" style="stroke:#A80036;stroke-width:2.0;"/><text fill="#000000" font-family="sans-serif" font-size="26" lengthAdjust="spacingAndGlyphs" textLength="48" x="170" y="1050.9902">play</text><text fill="#000000" font-family="sans-serif" font-size="26" lengthAdjust="spacingAndGlyphs" textLength="14" x="84.8635" y="702.6023">1</text><text fill="#000000" font-family="sans-serif" font-size="26" lengthAdjust="spacingAndGlyphs" textLength="14" x="345.1106" y="1302.6025">1</text><!--MD5=[abbf14228a6ef5549ae6840440c34539]
link Random to User--><path codeLine="51" d="M501.52,248.24 C491.04,323.42 480,423.78 480,513 C480,513 480,513 480,1138 C480,1182.64 480,1231.26 480,1275.32 " fill="none" id="Random-User" style="stroke:#A80036;stroke-width:2.0;"/><text fill="#000000" font-family="sans-serif" font-size="26" lengthAdjust="spacingAndGlyphs" textLength="48" x="482" y="882.9902">play</text><text fill="#000000" font-family="sans-serif" font-size="26" lengthAdjust="spacingAndGlyphs" textLength="14" x="484.4146" y="291.4898">1</text><text fill="#000000" font-family="sans-serif" font-size="26" lengthAdjust="spacingAndGlyphs" textLength="14" x="465.3109" y="1254.4441">1</text><!--MD5=[77972769db849a046567418dcf04c737]
link Guide to User--><path codeLine="52" d="M287.18,962.28 C310.4,1017.4 340.92,1089.84 368,1154 C384.7,1193.58 402.82,1236.46 419.52,1275.98 " fill="none" id="Guide-User" style="stroke:#A80036;stroke-width:2.0;"/><text fill="#000000" font-family="sans-serif" font-size="26" lengthAdjust="spacingAndGlyphs" textLength="56" x="370" y="1146.9902">learn</text><text fill="#000000" font-family="sans-serif" font-size="26" lengthAdjust="spacingAndGlyphs" textLength="14" x="277.4241" y="1004.3345">1</text><text fill="#000000" font-family="sans-serif" font-size="26" lengthAdjust="spacingAndGlyphs" textLength="14" x="398.5611" y="1254.4166">1</text><!--MD5=[0759a9e0ef35b0df92f94ca4e6fb89e2]
link Ladder to User--><path codeLine="53" d="M825.82,948.22 C798.34,1020.46 750.7,1131.4 690,1216 C660.3,1257.4 621.54,1297.58 585.44,1331.12 " fill="none" id="Ladder-User" style="stroke:#A80036;stroke-width:2.0;"/><text fill="#000000" font-family="sans-serif" font-size="26" lengthAdjust="spacingAndGlyphs" textLength="48" x="750" y="1146.9902">play</text><text fill="#000000" font-family="sans-serif" font-size="26" lengthAdjust="spacingAndGlyphs" textLength="14" x="806.3246" y="990.5967">1</text><text fill="#000000" font-family="sans-serif" font-size="26" lengthAdjust="spacingAndGlyphs" textLength="14" x="601.2519" y="1311.2912">2</text><!--MD5=[f64babf8fef3e94a6d734d1f31f53336]
reverse link Random to Competition--><path codeLine="54" d="M588.72,284.84 C603.56,317.58 619.1,351.92 633.48,383.72 " fill="none" id="Random-backto-Competition" style="stroke:#A80036;stroke-width:2.0;"/><polygon fill="none" points="575.82,290.26,572.08,248.04,601.32,278.72,575.82,290.26" style="stroke:#A80036;stroke-width:2.0;"/><text fill="#000000" font-family="sans-serif" font-size="26" lengthAdjust="spacingAndGlyphs" textLength="14" x="563.5741" y="291.2654">1</text><text fill="#000000" font-family="sans-serif" font-size="26" lengthAdjust="spacingAndGlyphs" textLength="14" x="612.3138" y="362.6382">1</text><!--MD5=[78b341e3b81603e949f8e674bf7fee16]
reverse link Stage to Guide--><path codeLine="55" d="M188.62,698.06 C199,727.1 209.3,755.96 218.42,781.52 " fill="none" id="Stage-backto-Guide" style="stroke:#A80036;stroke-width:2.0;"/><polygon fill="none" points="175.32,702.44,175.06,660.06,201.7,693.04,175.32,702.44" style="stroke:#A80036;stroke-width:2.0;"/><!--MD5=[ca626a7d12303746583130d89ccc56c2]
reverse link Competition to User--><path codeLine="56" d="M657.8,671.66 C626.16,813.48 577.3,1029.2 532,1216 C527.32,1235.26 522.28,1255.54 517.24,1275.5 " fill="none" id="Competition-backto-User" style="stroke:#A80036;stroke-width:2.0;"/><polygon fill="#FFFFFF" points="663.5,646.06,653.0802,656.0314,658.2769,669.4848,668.6967,659.5134,663.5,646.06" style="stroke:#A80036;stroke-width:2.0;"/><text fill="#000000" font-family="sans-serif" font-size="26" lengthAdjust="spacingAndGlyphs" textLength="14" x="645.6172" y="689.1717">1</text><text fill="#000000" font-family="sans-serif" font-size="26" lengthAdjust="spacingAndGlyphs" textLength="14" x="506.3585" y="1253.8871">2</text><!--MD5=[ea79d6173aa7c3fb3cbe3796ae701d27]
reverse link Competition to Ladder--><path codeLine="57" d="M767.3,683.14 C785.26,722.74 803.52,763.02 818.46,796 " fill="none" id="Competition-backto-Ladder" style="stroke:#A80036;stroke-width:2.0;"/><polygon fill="none" points="754.44,688.66,750.66,646.44,779.94,677.1,754.44,688.66" style="stroke:#A80036;stroke-width:2.0;"/><!--MD5=[5ebb6f8b643b4cf7f3746b8cc10f80b5]
@startuml
scale 2
class User{
    +ID: interger
    +points: interger
    +lever: interger
    +rank: interger
    +records: array
    +passed: interger
    -match()
}

class Stage{
    +ID: interger
    -clues: array
    +difficulty: interger
    -hint: array
    -answer: array
    -rankinglist: array
    -judgeAnswer()
}

class Random{
    +hardness: interger
    -clues: array
    -answer: array
    -generate()
    -jugde()
}

class Guide{
    -steps: array
    -helper: string
    -guide()
}

class Competition{
    -clues: array
    -timer()
    -pause()
    -continue()
    -compare()
    -dealWithResult()
}

class Ladder{
    +result: interger
    -submitAndStop()
}

Stage "1" - - - "1" User: play
Random "1" - - - "1" User: play
Guide "1" - - - "1" User: learn
Ladder "1" - - - "2" User: play
Random "1" <|- - "1" Competition
Stage <|- - Guide
Competition "1" o- - "2" User
Competition <|- - Ladder
@enduml

PlantUML version 1.2020.22(Sun Dec 06 01:36:27 PST 2020)
(GPL source distribution)
Java Runtime: Java(TM) SE Runtime Environment
JVM: Java HotSpot(TM) 64-Bit Server VM
Default Encoding: Cp1252
Language: en
Country: US
--></g></svg>